<svg xmlns="http://www.w3.org/2000/svg" viewBox="0 0 29 31">
    <path fill="currentColor" fill-rule="evenodd" d="M14.5.984h.028c6.711.19 12.093 5.69 12.093 12.447v6.75c0 .897.28 1.77.8 2.5l.853 1.193v2.658H.727v-2.658l.852-1.193c.52-.73.8-1.603.8-2.5v-6.75C2.38 6.674 7.762 1.175 14.473.985L14.5.984zm0 1.98C8.87 3.137 4.358 7.757 4.358 13.43v6.75a6.28 6.28 0 01-1.17 3.65l-.483.677v.045h23.59v-.045l-.483-.677a6.28 6.28 0 01-1.17-3.65v-6.75c0-5.673-4.511-10.293-10.142-10.468zM9.724 27.57a5.048 5.048 0 009.552 0h-2.179a3.065 3.065 0 01-2.597 1.435 3.065 3.065 0 01-2.597-1.434H9.724z" clip-rule="evenodd"/>
</svg>
