<svg xmlns="http://www.w3.org/2000/svg" fill="none" viewBox="0 0 43 49">
    <path fill="currentColor" stroke="currentColor" stroke-miterlimit="10" stroke-width=".9" d="M40.477 2.773l-.69-1.273-.985 1.175c-.098.098-5.813 6.95-19.805 18.11-3.941 3.133-5.715 7.636-4.73 12.041.592 2.546 2.464 6.56 8.474 10.084.099.097.099.097.197.097 2.858 1.665 6.7 3.23 11.627 4.406l2.267.587-6.898-11.943c1.281-.783 4.139-2.448 6.306-3.818l.296-.196c2.956-1.86 8.868-5.678 4.138-14.684 2.168-4.112 2.76-9.006-.197-14.586zm-7.685 42.192c-3.646-1.077-6.504-2.251-8.671-3.524-.493-.979-2.365-5.384 1.28-9.202l7.39 12.726zm2.66-14.488l-.296.196c-2.167 1.37-4.926 3.034-6.207 3.72l-2.07-3.525.1-.098.098-.097c3.645-2.643 8.966-6.363 12.218-11.258 3.054 6.755-.986 9.3-3.843 11.062zm-9.46-1.37l-.098.097c-4.828 3.426-5.025 7.734-4.434 10.573-3.645-2.741-4.828-5.482-5.32-7.342-.789-3.622.69-7.44 4.04-10.083C31.313 13.443 37.126 7.374 39.294 4.926c4.926 11.258-6.405 19.286-13.302 24.18zM9.983 16.547c1.297-1.615 2.694-2.624 3.991-2.523.599 0 1.026.182 1.497.908l2.183 3.344 1.596-1.312-2.083-3.142c-.698-1.11-1.796-1.816-3.093-1.816-1.896-.101-3.992 1.11-5.688 3.33-1.896 2.522-4.69 5.348-4.69 5.449L2 22.5h10.278v-2.018H6.69a74.432 74.432 0 003.293-3.935z"/>
</svg>
