<svg width="21" height="21" viewBox="0 0 21 21" fill="none" xmlns="http://www.w3.org/2000/svg">
<path fill-rule="evenodd" clip-rule="evenodd" d="M18.1627 15.3954H6.36937V14.0224H18.1627V15.3954Z" fill="black"/>
<path fill-rule="evenodd" clip-rule="evenodd" d="M8.67689 18.0041C8.3229 18.0041 8.03595 18.3114 8.03595 18.6905C8.03595 19.0697 8.3229 19.377 8.67689 19.377C9.03087 19.377 9.31783 19.0697 9.31783 18.6905C9.31783 18.3114 9.03087 18.0041 8.67689 18.0041ZM6.75406 18.6905C6.75406 17.5531 7.61494 16.6311 8.67689 16.6311C9.73883 16.6311 10.5997 17.5531 10.5997 18.6905C10.5997 19.8279 9.73883 20.75 8.67689 20.75C7.61494 20.75 6.75406 19.8279 6.75406 18.6905Z" fill="black"/>
<path fill-rule="evenodd" clip-rule="evenodd" d="M15.599 18.0041C14.9891 18.0041 14.7017 18.4233 14.7017 18.6905C14.7017 18.9578 14.9891 19.377 15.599 19.377C16.209 19.377 16.4964 18.9578 16.4964 18.6905C16.4964 18.4233 16.209 18.0041 15.599 18.0041ZM13.4198 18.6905C13.4198 17.4413 14.5099 16.6311 15.599 16.6311C16.6882 16.6311 17.7782 17.4413 17.7782 18.6905C17.7782 19.9398 16.6882 20.75 15.599 20.75C14.5099 20.75 13.4198 19.9398 13.4198 18.6905Z" fill="black"/>
<path fill-rule="evenodd" clip-rule="evenodd" d="M0.5 2.03216L0.958457 0.75L4.48137 2.19505L4.80691 2.32859L5.23901 4.50103L20.5 5.67823L18.8517 13.0613H5.63098L3.69824 3.34403L0.5 2.03216ZM5.51706 5.899L6.66854 11.6883H17.8402L18.9022 6.9315L5.51706 5.899Z" fill="black"/>
</svg>
