<svg xmlns="http://www.w3.org/2000/svg" viewBox="0 0 35 35">
    <path fill="currentColor" d="M21.84 20.18c0 1.027-.32 1.893-.96 2.6-.64.693-1.54 1.147-2.7 1.36v3.06h-1.96v-2.96c-1.707-.107-3.113-.707-4.22-1.8l1.36-1.5c.973.907 2.1 1.36 3.38 1.36.733 0 1.327-.173 1.78-.52.453-.347.68-.833.68-1.46 0-.387-.08-.707-.24-.96-.147-.253-.407-.48-.78-.68-.373-.2-.913-.407-1.62-.62-1.427-.427-2.453-.953-3.08-1.58-.627-.627-.94-1.433-.94-2.42 0-.973.333-1.78 1-2.42.68-.653 1.573-1.053 2.68-1.2V7.5h1.96v2.94c.667.093 1.26.273 1.78.54.533.253 1.033.6 1.5 1.04l-1.3 1.46c-.44-.4-.9-.693-1.38-.88-.48-.187-1-.28-1.56-.28-.613 0-1.113.14-1.5.42-.373.267-.56.653-.56 1.16 0 .333.073.613.22.84.16.213.433.42.82.62.387.187.953.393 1.7.62 1.32.413 2.307.927 2.96 1.54s.98 1.5.98 2.66z"/>
    <path fill="currentColor" fill-rule="evenodd" d="M16.816 4.174C9.819 4.174 4.147 9.916 4.147 17c0 7.084 5.672 12.826 12.669 12.826 6.997 0 12.668-5.742 12.668-12.826 0-7.084-5.672-12.826-12.668-12.826zM2 17C2 8.716 8.633 2 16.816 2c8.182 0 14.816 6.716 14.816 15 0 8.284-6.634 15-14.816 15C8.633 32 2 25.284 2 17z" clip-rule="evenodd"/>
</svg>
