<svg xmlns="http://www.w3.org/2000/svg" viewBox="0 0 30 30">
    <path fill="currentColor" d="M24.949 5.135c0 2.345-1.63 4.323-3.857 4.938a8.035 8.035 0 00-.336-2.037c1.215-.442 2.08-1.574 2.08-2.9 0-1.712-1.439-3.1-3.214-3.1a3.25 3.25 0 00-2.587 1.261 8.74 8.74 0 00-1.941-.867C16.034.971 17.71 0 19.622 0c2.942 0 5.327 2.3 5.327 5.135z"/>
    <path fill="currentColor" fill-rule="evenodd" d="M18.53 8.05a6.07 6.07 0 01.396 3.15 6.085 6.085 0 01-.715 2.13c-1.045 1.874-3.047 3.178-5.375 3.304a6.804 6.804 0 01-2.31-.272c-2.653-.796-4.58-3.182-4.58-6.003 0-3.471 2.918-6.285 6.519-6.285.659 0 1.294.094 1.894.27a6.59 6.59 0 012.058 1.016 6.333 6.333 0 012.113 2.69zm-4.015-1.453c1.141.58 1.987 1.628 2.261 2.88a4.12 4.12 0 01-.09 2.107c-.546 1.75-2.23 3.023-4.221 3.023h-.04a4.592 4.592 0 01-.586-.042c-2.137-.293-3.78-2.064-3.78-4.206 0-2.346 1.972-4.248 4.406-4.248.74 0 1.437.176 2.05.486z" clip-rule="evenodd"/>
    <path fill="currentColor" d="M9.268 20.504C5.115 21.803 2.113 25.564 2.113 30H0c0-5.743 4.178-10.545 9.764-11.735a12.925 12.925 0 012.7-.282c6.885 0 12.466 5.38 12.466 12.017h-2.113c0-5.512-4.635-9.98-10.352-9.98a10.635 10.635 0 00-3.197.485zM21.045 11.271a8.025 8.025 0 01-.49 1.994c4.126.447 7.332 3.822 7.332 7.918H30c0-5.06-3.896-9.243-8.955-9.912z"/>
</svg>
