<svg width="20" height="21" viewBox="0 0 20 21" fill="none" xmlns="http://www.w3.org/2000/svg">
<path d="M10.6932 10.4673V5.15H9.3599L9.3611 11.0208L14.0278 15.6875L14.9706 14.7447L10.6932 10.4673Z" fill="black"/>
<path fill-rule="evenodd" clip-rule="evenodd" d="M0 10.75C0 5.22715 4.47715 0.75 10 0.75C15.5228 0.75 20 5.22715 20 10.75C20 16.2728 15.5228 20.75 10 20.75C4.47715 20.75 0 16.2728 0 10.75ZM10 2.08333C5.21353 2.08333 1.33333 5.96353 1.33333 10.75C1.33333 15.5365 5.21353 19.4167 10 19.4167C14.7865 19.4167 18.6667 15.5365 18.6667 10.75C18.6667 5.96353 14.7865 2.08333 10 2.08333Z" fill="black"/>
</svg>
