<svg width="20" height="21" viewBox="0 0 20 21" fill="none" xmlns="http://www.w3.org/2000/svg">
<path d="M16.6325 4.17357C16.6325 5.73678 15.5458 7.0553 14.0611 7.46523C14.0446 6.99536 13.9675 6.5403 13.8372 6.1071C14.6476 5.81256 15.2241 5.05797 15.2241 4.17357C15.2241 3.03273 14.2648 2.10791 13.0815 2.10791C12.374 2.10791 11.7466 2.43855 11.3564 2.94832C10.9556 2.70669 10.5217 2.51132 10.0627 2.36998C10.6891 1.39751 11.8069 0.75 13.0815 0.75C15.0427 0.75 16.6325 2.28278 16.6325 4.17357Z" fill="black"/>
<path fill-rule="evenodd" clip-rule="evenodd" d="M12.3534 6.11688C12.5387 6.56895 12.6447 7.05952 12.6551 7.5727C12.6557 7.60038 12.6559 7.62812 12.6559 7.65592C12.6559 7.8461 12.6428 8.03332 12.6173 8.21678C12.5469 8.72465 12.382 9.20373 12.1404 9.63709C11.4439 10.8862 10.1093 11.7554 8.55714 11.8394C8.4753 11.8438 8.39286 11.846 8.30988 11.846C7.85999 11.846 7.42608 11.7801 7.01795 11.6578C5.24856 11.1274 3.96381 9.53632 3.96381 7.65592C3.96381 5.34179 5.90961 3.46581 8.30987 3.46581C8.74902 3.46581 9.17296 3.52861 9.57255 3.64539C10.0743 3.79203 10.5376 4.0238 10.9445 4.32325C11.5689 4.78274 12.0603 5.40161 12.3534 6.11688ZM9.67652 5.14822C10.4376 5.53455 11.0014 6.2335 11.1841 7.06793C11.2256 7.25762 11.2475 7.45431 11.2475 7.65592C11.2475 7.93996 11.2041 8.21423 11.1234 8.47292C10.7597 9.63881 9.63767 10.4881 8.30988 10.4881C8.30103 10.4881 8.2922 10.4881 8.28337 10.488C8.15097 10.4869 8.02066 10.4773 7.89299 10.4598C6.46803 10.2646 5.37225 9.08366 5.37225 7.65592C5.37225 6.09174 6.68747 4.82372 8.30987 4.82372C8.80329 4.82372 9.26828 4.941 9.67652 5.14822Z" fill="black"/>
<path d="M6.17874 14.4195C3.41016 15.2853 1.40845 17.7923 1.40845 20.75H0C0 16.9214 2.78554 13.72 6.5093 12.9269C7.00188 12.822 7.5109 12.7593 8.03205 12.7428C8.12428 12.7398 8.21688 12.7384 8.30984 12.7384C12.8992 12.7384 16.6197 16.3253 16.6197 20.75H15.2112C15.2112 17.0752 12.1214 14.0963 8.30984 14.0963C8.07876 14.0963 7.85032 14.1072 7.62506 14.1286C7.12539 14.1761 6.64136 14.2749 6.17874 14.4195Z" fill="black"/>
<path d="M14.0302 8.26419C13.9779 8.72672 13.8666 9.17217 13.7038 9.59341C16.4539 9.8914 18.5916 12.1411 18.5916 14.8722H20C20 11.4986 17.4023 8.71001 14.0302 8.26419Z" fill="black"/>
</svg>
