<svg width="21" height="22" viewBox="0 0 21 22" fill="none" xmlns="http://www.w3.org/2000/svg">
<path fill-rule="evenodd" clip-rule="evenodd" d="M6.54785 5.68151C6.54785 3.69402 8.25243 2.08284 10.3551 2.08284C12.4578 2.08284 14.1624 3.69402 14.1624 5.68151C14.1624 7.669 12.4578 9.28017 10.3551 9.28017C8.25243 9.28017 6.54785 7.669 6.54785 5.68151ZM10.3551 0.75C7.47365 0.75 5.13774 2.95791 5.13774 5.68151C5.13774 8.4051 7.47365 10.613 10.3551 10.613C13.2366 10.613 15.5725 8.4051 15.5725 5.68151C15.5725 2.95791 13.2366 0.75 10.3551 0.75ZM10.3551 11.7089C7.74135 11.7089 5.23467 12.6903 3.38648 14.4372C1.5383 16.1841 0.5 18.5535 0.5 21.024H1.92827C1.92827 18.9115 2.81609 16.8856 4.39643 15.3918C5.97676 13.8981 8.12015 13.0589 10.3551 13.0589C12.59 13.0589 14.7334 13.8981 16.3137 15.3918C17.8941 16.8856 18.7819 18.9115 18.7819 21.024H20.2101C20.2101 18.5535 19.1718 16.1841 17.3237 14.4372C15.4755 12.6903 12.9688 11.7089 10.3551 11.7089Z" fill="black"/>
</svg>
