<svg width="28" height="26" viewBox="0 0 28 26" fill="none" xmlns="http://www.w3.org/2000/svg">
<path fill-rule="evenodd" clip-rule="evenodd" d="M4.25917 1.82389L2.32841 6.03087H25.6716L23.7408 1.82385L4.25917 1.82389ZM26.1818 7.85472H22.7636V9.58129C22.7636 10.5388 23.5328 11.3079 24.4727 11.3079C25.4127 11.3079 26.1818 10.5388 26.1818 9.58129V7.85472ZM21.8545 11.9604C22.4994 12.6793 23.4326 13.1317 24.4727 13.1317C26.4247 13.1317 28 11.5382 28 9.58129V6.74296L25.1489 0.530574C25.0005 0.207182 24.678 -6.08774e-07 24.3231 0L3.67688 3.7389e-05C3.32197 3.79978e-05 2.99952 0.20722 2.8511 0.53061L0 6.74296V9.58129C0 11.5382 1.57526 13.1317 3.52727 13.1317C4.56742 13.1317 5.50059 12.6793 6.14546 11.9604C6.79032 12.6793 7.72349 13.1317 8.76364 13.1317C9.80378 13.1317 10.737 12.6793 11.3818 11.9604C12.0267 12.6793 12.9599 13.1317 14 13.1317C15.0401 13.1317 15.9733 12.6793 16.6182 11.9604C17.263 12.6793 18.1962 13.1317 19.2364 13.1317C20.2765 13.1317 21.2097 12.6793 21.8545 11.9604ZM17.5273 9.58129C17.5273 10.5388 18.2964 11.3079 19.2364 11.3079C20.1763 11.3079 20.9455 10.5388 20.9455 9.58129V7.85472H17.5273V9.58129ZM15.7091 7.85472V9.58129C15.7091 10.5388 14.9399 11.3079 14 11.3079C13.06 11.3079 12.2909 10.5388 12.2909 9.58129V7.85472H15.7091ZM10.4727 7.85472H7.05455V9.58129C7.05455 10.5388 7.82369 11.3079 8.76364 11.3079C9.70359 11.3079 10.4727 10.5388 10.4727 9.58129V7.85472ZM5.23636 9.58129V7.85472H1.81818V9.58129C1.81818 10.5388 2.58732 11.3079 3.52727 11.3079C4.46722 11.3079 5.23636 10.5388 5.23636 9.58129ZM4.06234 24.1761V14.4814H2.24416V26H25.7558V14.4814H23.9377V24.1761H19.0234V15.8574H9.72468V24.1761H4.06234ZM11.5429 24.1761H17.2052V17.6812H11.5429V24.1761Z" fill="#4F4F4F"/>
</svg>
